<svg width="153" height="47" viewBox="0 0 153 47" fill="none" xmlns="http://www.w3.org/2000/svg">
<path fill-rule="evenodd" clip-rule="evenodd" d="M0 10.5732C0 5.0504 4.47715 0.573242 10 0.573242H36C41.5228 0.573242 46 5.0504 46 10.5732V36.5732C46 42.0961 41.5228 46.5732 36 46.5732H10C4.47715 46.5732 0 42.0961 0 36.5732V10.5732Z" fill="#169C50"/>
<path fill-rule="evenodd" clip-rule="evenodd" d="M35.8169 27.5039V19.2874C37.0706 19.0199 38.0277 18.0049 38.2216 16.7379C38.4154 15.4709 37.8053 14.2161 36.689 13.5862C35.5727 12.9562 34.1832 13.0824 33.1987 13.9031L26.0422 9.77098C26.0529 9.6626 26.0594 9.55466 26.0594 9.44384C26.0594 7.74055 24.6786 6.35974 22.9752 6.35974C21.272 6.35974 19.8911 7.74054 19.8911 9.44384C19.8916 9.57448 19.901 9.70499 19.919 9.83436L12.8295 13.9279C11.8547 13.0944 10.4659 12.9514 9.34185 13.5687C8.2178 14.186 7.59325 15.4348 7.77352 16.7045C7.954 17.9741 8.90153 18.9996 10.153 19.2795V27.5119C8.90395 27.7905 7.95663 28.812 7.77277 30.0786C7.58907 31.3452 8.20664 32.5938 9.32516 33.2161C10.4434 33.8384 11.8301 33.7052 12.8095 32.8814L20.0653 37.0713L20.118 36.9788C20.432 38.3856 21.0553 39.5059 21.8347 40.0681V40.6288H22.4604V40.3822C22.627 40.4344 22.8006 40.4613 22.9752 40.4619C23.2279 40.4603 23.4773 40.4059 23.7077 40.3025V40.6297H24.3347V39.892C25.1046 39.1108 25.6223 38.1163 25.8207 37.0375L33.1238 32.8208C34.0898 33.6815 35.4906 33.8475 36.631 33.2363C37.7714 32.6251 38.4088 31.3668 38.227 30.0859C38.0452 28.8048 37.0823 27.7737 35.8169 27.5039ZM35.1589 14.4799C36.1682 14.4794 36.9865 15.2971 36.9869 16.3063C36.9873 17.3155 36.1694 18.1339 35.1602 18.1342C34.151 18.1345 33.3328 17.3166 33.3327 16.3074C33.3327 15.2985 34.1501 14.4805 35.1589 14.4799ZM25.6082 11.0458L32.3861 14.9584C32.0419 15.683 31.9964 16.5139 32.2593 17.2717L27.6736 19.9601C26.7606 18.5673 25.2764 17.6516 23.622 17.4606V12.4593C24.4492 12.2803 25.1668 11.7694 25.6064 11.0462L25.6082 11.0458ZM22.9607 7.65137C23.97 7.65091 24.7885 8.46863 24.7888 9.47787C24.7891 10.487 23.9712 11.3054 22.962 11.3056C21.953 11.306 21.1347 10.4881 21.1345 9.47889C21.1345 8.47123 21.9507 7.65349 22.9589 7.65175L22.9607 7.65137ZM20.3758 11.0957C20.813 11.7844 21.5054 12.2716 22.3014 12.4507V17.4655C20.6401 17.6663 19.1552 18.5978 18.2513 20.006L13.7142 17.3559C14.0078 16.5885 13.9783 15.7348 13.6325 14.9895L20.3758 11.0957ZM8.98706 16.307C8.98626 15.2975 9.80417 14.4786 10.8137 14.4783C11.8232 14.4778 12.6419 15.2959 12.6421 16.3054C12.6421 17.3153 11.8237 18.1336 10.8141 18.1334C9.80503 18.134 8.98653 17.3168 8.98529 16.3077L8.98706 16.307ZM10.8146 32.3822C9.80496 32.3828 8.9863 31.5647 8.98619 30.5551C8.98619 29.5454 9.80485 28.7272 10.8144 28.7278C11.8238 28.7283 12.6416 29.5474 12.6405 30.5569C12.6397 31.5657 11.8217 32.3829 10.8129 32.3829L10.8146 32.3822ZM11.4745 27.5031V19.2874C12.0499 19.1649 12.5782 18.8796 12.996 18.4653L17.6734 21.1959C17.1584 22.6551 17.2749 24.2629 17.995 25.6326L13.1382 28.4791C12.7015 27.9843 12.1177 27.6425 11.4725 27.5039L11.4745 27.5031ZM26.0453 35.3833C26.0534 35.2239 26.0584 35.0645 26.0584 34.9015C26.0584 32.249 25.0279 30.0333 23.6498 29.479V24.7854C24.4985 24.4815 25.0053 23.6113 24.8512 22.7233C24.697 21.8353 23.9263 21.1869 23.025 21.1869C22.1238 21.1869 21.3531 21.8353 21.1988 22.7233C21.0446 23.6113 21.5516 24.4815 22.4002 24.7854V29.4411C20.9735 29.9281 19.8938 32.1861 19.8938 34.9007C19.8938 35.088 19.9007 35.2729 19.9098 35.4551L13.6213 31.8231C13.8137 31.4153 13.9138 30.9701 13.9142 30.5191C13.9138 30.2174 13.8693 29.9173 13.7824 29.6284L18.739 26.7237C19.5797 27.6906 20.7256 28.3411 21.9869 28.5672V27.2573C19.8573 26.7585 18.4328 24.7515 18.6649 22.5766C18.8969 20.4017 20.7129 18.7404 22.8998 18.7022C25.0866 18.664 26.9595 20.261 27.2673 22.4265C27.5752 24.5919 26.2214 26.6475 24.1105 27.2202V28.5465C25.3049 28.2993 26.3862 27.6698 27.1906 26.7532L32.2084 29.6831C32.0138 30.3662 32.0623 31.0955 32.3454 31.747L26.0453 35.3833ZM32.8312 28.5182L27.9431 25.6636C28.6853 24.2703 28.8012 22.6274 28.262 21.1438L32.9456 18.3988C33.3652 18.8397 33.9061 19.1461 34.4999 19.2791V27.5115C33.8483 27.6567 33.2619 28.0103 32.8293 28.5185L32.8312 28.5182ZM35.1595 32.3837C34.15 32.3844 33.3313 31.5665 33.331 30.5572C33.3306 29.5479 34.1487 28.7294 35.1581 28.7294C36.1675 28.7294 36.9856 29.5478 36.9854 30.5571C36.9845 31.5652 36.1677 32.383 35.1595 32.3837Z" fill="white"/>
<path d="M53.903 35.7975L56.7415 28.4138H57.7206L60.5481 35.7975H59.569L58.8648 33.8989H55.5863L54.8711 35.7975H53.903ZM55.8613 33.1816H58.5898L57.2255 29.5319L55.8613 33.1816Z" fill="white"/>
<path d="M66.8601 35.9241C66.2073 35.9241 65.6645 35.7659 65.2318 35.4494C64.799 35.133 64.546 34.704 64.4726 34.1626H65.4188C65.4775 34.4368 65.6279 34.6759 65.8699 34.8798C66.1193 35.0767 66.453 35.1752 66.8711 35.1752C67.2598 35.1752 67.5459 35.0978 67.7292 34.9431C67.9126 34.7814 68.0043 34.5915 68.0043 34.3735C68.0043 34.0571 67.8833 33.8461 67.6412 33.7406C67.4065 33.6352 67.0728 33.5402 66.64 33.4558C66.3467 33.3996 66.0533 33.3187 65.7599 33.2132C65.4665 33.1078 65.2208 32.9601 65.0228 32.7702C64.8247 32.5733 64.7257 32.3166 64.7257 32.0002C64.7257 31.5431 64.9017 31.1704 65.2538 30.8821C65.6132 30.5868 66.0973 30.4391 66.706 30.4391C67.2855 30.4391 67.7586 30.5797 68.1253 30.861C68.4994 31.1353 68.7157 31.5291 68.7744 32.0424H67.8613C67.8246 31.7752 67.7036 31.5677 67.4982 31.4201C67.3001 31.2654 67.0324 31.188 66.695 31.188C66.365 31.188 66.1083 31.2548 65.9249 31.3884C65.7489 31.522 65.6609 31.6978 65.6609 31.9158C65.6609 32.1268 65.7745 32.292 66.0019 32.4116C66.2366 32.5311 66.552 32.6331 66.9481 32.7175C67.2855 32.7878 67.6045 32.8757 67.9053 32.9812C68.2133 33.0796 68.4627 33.2308 68.6534 33.4347C68.8514 33.6316 68.9504 33.92 68.9504 34.2997C68.9578 34.7708 68.7707 35.1611 68.3893 35.4705C68.0153 35.7729 67.5055 35.9241 66.8601 35.9241Z" fill="white"/>
<path d="M70.9418 29.4054C70.7584 29.4054 70.6044 29.3491 70.4797 29.2366C70.3624 29.1171 70.3037 28.9694 70.3037 28.7936C70.3037 28.6248 70.3624 28.4842 70.4797 28.3717C70.6044 28.2591 70.7584 28.2029 70.9418 28.2029C71.1178 28.2029 71.2682 28.2591 71.3929 28.3717C71.5176 28.4842 71.5799 28.6248 71.5799 28.7936C71.5799 28.9694 71.5176 29.1171 71.3929 29.2366C71.2682 29.3491 71.1178 29.4054 70.9418 29.4054ZM70.4797 35.7975V30.5657H71.4039V35.7975H70.4797Z" fill="white"/>
<path d="M73.123 35.7975V30.5657H73.9592L74.0252 31.3251C74.2012 31.0438 74.4359 30.8258 74.7293 30.6711C75.0227 30.5164 75.3528 30.4391 75.7195 30.4391C76.1522 30.4391 76.5226 30.5235 76.8307 30.6922C77.1461 30.861 77.3881 31.1177 77.5568 31.4622C77.7475 31.1458 78.0079 30.8962 78.3379 30.7133C78.6753 30.5305 79.0384 30.4391 79.4271 30.4391C80.0799 30.4391 80.6007 30.6289 80.9894 31.0087C81.3782 31.3814 81.5725 31.958 81.5725 32.7386V35.7975H80.6594V32.8335C80.6594 32.292 80.5457 31.8842 80.3183 31.6099C80.0909 31.3357 79.7645 31.1985 79.3391 31.1985C78.899 31.1985 78.5323 31.3638 78.2389 31.6943C77.9529 32.0178 77.8099 32.4819 77.8099 33.0867V35.7975H76.8857V32.8335C76.8857 32.292 76.772 31.8842 76.5446 31.6099C76.3173 31.3357 75.9909 31.1985 75.5655 31.1985C75.1327 31.1985 74.7696 31.3638 74.4763 31.6943C74.1902 32.0178 74.0472 32.4819 74.0472 33.0867V35.7975H73.123Z" fill="white"/>
<path d="M83.0746 38.1181V30.5657H83.9108L83.9988 31.4306C84.1748 31.1775 84.4242 30.9489 84.7469 30.745C85.077 30.541 85.4951 30.4391 86.0011 30.4391C86.5439 30.4391 87.017 30.5586 87.4204 30.7977C87.8238 31.0368 88.1355 31.3638 88.3556 31.7787C88.5829 32.1936 88.6966 32.6647 88.6966 33.1921C88.6966 33.7195 88.5829 34.1907 88.3556 34.6056C88.1355 35.0135 87.8201 35.3369 87.4094 35.576C87.006 35.8081 86.5329 35.9241 85.9902 35.9241C85.5427 35.9241 85.143 35.8362 84.7909 35.6604C84.4462 35.4846 84.1822 35.2385 83.9988 34.922V38.1181H83.0746ZM85.8911 35.1541C86.2579 35.1541 86.5806 35.0732 86.8593 34.9115C87.138 34.7427 87.3581 34.5107 87.5194 34.2153C87.6808 33.92 87.7615 33.5754 87.7615 33.1816C87.7615 32.7878 87.6808 32.4432 87.5194 32.1479C87.3581 31.8525 87.138 31.624 86.8593 31.4622C86.5806 31.2935 86.2579 31.2091 85.8911 31.2091C85.5244 31.2091 85.2017 31.2935 84.923 31.4622C84.6442 31.624 84.4242 31.8525 84.2628 32.1479C84.1015 32.4432 84.0208 32.7878 84.0208 33.1816C84.0208 33.5754 84.1015 33.92 84.2628 34.2153C84.4242 34.5107 84.6442 34.7427 84.923 34.9115C85.2017 35.0732 85.5244 35.1541 85.8911 35.1541Z" fill="white"/>
<path d="M90.0931 35.7975V28.2029H91.0173V35.7975H90.0931Z" fill="white"/>
<path d="M95.0955 35.9241C94.5747 35.9241 94.1126 35.8116 93.7092 35.5866C93.3058 35.3545 92.9868 35.0345 92.7521 34.6267C92.5247 34.2188 92.411 33.7371 92.411 33.1816C92.411 32.6331 92.5247 32.1549 92.7521 31.747C92.9794 31.3322 93.2948 31.0122 93.6982 30.7872C94.109 30.5551 94.582 30.4391 95.1175 30.4391C95.6456 30.4391 96.1003 30.5551 96.4817 30.7872C96.8704 31.0122 97.1675 31.3111 97.3729 31.6838C97.5782 32.0565 97.6809 32.4573 97.6809 32.8862C97.6809 32.9636 97.6773 33.041 97.6699 33.1183C97.6699 33.1957 97.6699 33.2836 97.6699 33.382H93.3242C93.3462 33.7828 93.4415 34.1169 93.6102 34.3841C93.7862 34.6443 94.0026 34.8412 94.2593 34.9748C94.5234 35.1084 94.8021 35.1752 95.0955 35.1752C95.4769 35.1752 95.7959 35.0908 96.0526 34.922C96.3093 34.7533 96.4964 34.5247 96.6137 34.2364H97.5269C97.3802 34.7216 97.0978 35.126 96.6797 35.4494C96.269 35.7659 95.7409 35.9241 95.0955 35.9241ZM95.0955 31.188C94.6554 31.188 94.263 31.3181 93.9183 31.5783C93.5809 31.8314 93.3865 32.2041 93.3352 32.6964H96.7678C96.7458 32.2252 96.5771 31.856 96.2617 31.5888C95.9463 31.3216 95.5575 31.188 95.0955 31.188Z" fill="white"/>
<path d="M102.038 35.7975V28.2029H102.962V31.4622C103.145 31.1388 103.405 30.8891 103.743 30.7133C104.08 30.5305 104.447 30.4391 104.843 30.4391C105.474 30.4391 105.98 30.6289 106.361 31.0087C106.743 31.3814 106.933 31.958 106.933 32.7386V35.7975H106.02V32.8335C106.02 31.7435 105.562 31.1985 104.645 31.1985C104.168 31.1985 103.769 31.3638 103.446 31.6943C103.123 32.0178 102.962 32.4819 102.962 33.0867V35.7975H102.038Z" fill="white"/>
<path d="M109.005 29.4054C108.821 29.4054 108.667 29.3491 108.543 29.2366C108.425 29.1171 108.367 28.9694 108.367 28.7936C108.367 28.6248 108.425 28.4842 108.543 28.3717C108.667 28.2591 108.821 28.2029 109.005 28.2029C109.181 28.2029 109.331 28.2591 109.456 28.3717C109.58 28.4842 109.643 28.6248 109.643 28.7936C109.643 28.9694 109.58 29.1171 109.456 29.2366C109.331 29.3491 109.181 29.4054 109.005 29.4054ZM108.543 35.7975V30.5657H109.467V35.7975H108.543Z" fill="white"/>
<path d="M111.186 35.7975V30.5657H112.022L112.099 31.5677C112.268 31.2232 112.524 30.9489 112.869 30.745C113.214 30.541 113.639 30.4391 114.145 30.4391V31.3673H113.892C113.57 31.3673 113.273 31.4236 113.001 31.5361C112.73 31.6416 112.513 31.8244 112.352 32.0846C112.191 32.3448 112.11 32.7034 112.11 33.1605V35.7975H111.186Z" fill="white"/>
<path d="M115.854 29.4054C115.67 29.4054 115.516 29.3491 115.392 29.2366C115.274 29.1171 115.216 28.9694 115.216 28.7936C115.216 28.6248 115.274 28.4842 115.392 28.3717C115.516 28.2591 115.67 28.2029 115.854 28.2029C116.03 28.2029 116.18 28.2591 116.305 28.3717C116.43 28.4842 116.492 28.6248 116.492 28.7936C116.492 28.9694 116.43 29.1171 116.305 29.2366C116.18 29.3491 116.03 29.4054 115.854 29.4054ZM115.392 35.7975V30.5657H116.316V35.7975H115.392Z" fill="white"/>
<path d="M118.035 35.7975V30.5657H118.871L118.926 31.5044C119.102 31.1739 119.355 30.9137 119.685 30.7239C120.015 30.534 120.389 30.4391 120.808 30.4391C121.453 30.4391 121.966 30.6289 122.348 31.0087C122.737 31.3814 122.931 31.958 122.931 32.7386V35.7975H122.007V32.8335C122.007 31.7435 121.537 31.1985 120.599 31.1985C120.129 31.1985 119.737 31.3638 119.421 31.6943C119.113 32.0178 118.959 32.4819 118.959 33.0867V35.7975H118.035Z" fill="white"/>
<path d="M126.597 34.152C126.289 34.152 126.007 34.1133 125.75 34.036L125.2 34.5318C125.281 34.588 125.38 34.6372 125.497 34.6794C125.622 34.7146 125.798 34.7497 126.025 34.7849C126.253 34.813 126.572 34.8447 126.983 34.8798C127.716 34.9291 128.24 35.0908 128.556 35.3651C128.871 35.6393 129.029 35.9979 129.029 36.441C129.029 36.7433 128.941 37.0317 128.765 37.3059C128.596 37.5802 128.332 37.8052 127.973 37.981C127.621 38.1568 127.166 38.2447 126.608 38.2447C126.117 38.2447 125.681 38.1814 125.299 38.0548C124.918 37.9353 124.621 37.7489 124.408 37.4958C124.195 37.2497 124.089 36.9367 124.089 36.557C124.089 36.3601 124.144 36.1456 124.254 35.9136C124.364 35.6885 124.569 35.4741 124.87 35.2701C124.709 35.2068 124.569 35.14 124.452 35.0697C124.342 34.9924 124.239 34.908 124.144 34.8166V34.5739L125.079 33.6879C124.646 33.3363 124.43 32.8722 124.43 32.2956C124.43 31.951 124.514 31.6381 124.683 31.3568C124.852 31.0755 125.098 30.854 125.42 30.6922C125.743 30.5235 126.135 30.4391 126.597 30.4391C126.913 30.4391 127.199 30.4813 127.456 30.5657H129.469V31.2302L128.446 31.2724C128.659 31.5677 128.765 31.9088 128.765 32.2956C128.765 32.6401 128.677 32.953 128.501 33.2343C128.332 33.5156 128.086 33.7406 127.764 33.9094C127.448 34.0712 127.06 34.152 126.597 34.152ZM126.597 33.4242C126.986 33.4242 127.294 33.3293 127.522 33.1394C127.756 32.9425 127.874 32.6612 127.874 32.2956C127.874 31.9369 127.756 31.6627 127.522 31.4728C127.294 31.2759 126.986 31.1775 126.597 31.1775C126.201 31.1775 125.886 31.2759 125.651 31.4728C125.424 31.6627 125.31 31.9369 125.31 32.2956C125.31 32.6612 125.424 32.9425 125.651 33.1394C125.886 33.3293 126.201 33.4242 126.597 33.4242ZM124.991 36.4726C124.991 36.8242 125.145 37.0844 125.453 37.2532C125.761 37.429 126.146 37.5169 126.608 37.5169C127.063 37.5169 127.426 37.4219 127.698 37.2321C127.976 37.0422 128.116 36.7891 128.116 36.4726C128.116 36.2476 128.02 36.0507 127.83 35.8819C127.639 35.7202 127.287 35.6252 126.774 35.5971C126.37 35.569 126.022 35.5338 125.728 35.4916C125.428 35.6463 125.23 35.8116 125.134 35.9874C125.039 36.1702 124.991 36.332 124.991 36.4726Z" fill="white"/>
<path d="M135.459 35.9241C135.004 35.9241 134.626 35.8503 134.325 35.7026C134.025 35.5549 133.801 35.358 133.654 35.1119C133.508 34.8658 133.434 34.5986 133.434 34.3102C133.434 33.7758 133.647 33.3644 134.072 33.0761C134.498 32.7878 135.077 32.6436 135.811 32.6436H137.285V32.5804C137.285 32.1233 137.16 31.7787 136.911 31.5466C136.661 31.3075 136.328 31.188 135.91 31.188C135.55 31.188 135.238 31.2759 134.974 31.4517C134.718 31.6205 134.556 31.8701 134.49 32.2006H133.544C133.581 31.8209 133.713 31.5009 133.94 31.2407C134.175 30.9806 134.465 30.7837 134.809 30.65C135.154 30.5094 135.521 30.4391 135.91 30.4391C136.672 30.4391 137.245 30.636 137.626 31.0298C138.015 31.4165 138.209 31.9334 138.209 32.5804V35.7975H137.384L137.329 34.8587C137.175 35.1541 136.947 35.4072 136.647 35.6182C136.353 35.8221 135.957 35.9241 135.459 35.9241ZM135.602 35.1752C135.954 35.1752 136.254 35.0873 136.504 34.9115C136.76 34.7357 136.955 34.5071 137.087 34.2259C137.219 33.9446 137.285 33.6492 137.285 33.3398V33.3293H135.888C135.345 33.3293 134.96 33.4207 134.732 33.6035C134.512 33.7793 134.402 34.0008 134.402 34.2681C134.402 34.5423 134.505 34.7638 134.71 34.9326C134.923 35.0943 135.22 35.1752 135.602 35.1752Z" fill="white"/>
<path d="M139.705 38.1181V30.5657H140.542L140.63 31.4306C140.806 31.1775 141.055 30.9489 141.378 30.745C141.708 30.541 142.126 30.4391 142.632 30.4391C143.175 30.4391 143.648 30.5586 144.051 30.7977C144.455 31.0368 144.766 31.3638 144.986 31.7787C145.214 32.1936 145.327 32.6647 145.327 33.1921C145.327 33.7195 145.214 34.1907 144.986 34.6056C144.766 35.0135 144.451 35.3369 144.04 35.576C143.637 35.8081 143.164 35.9241 142.621 35.9241C142.174 35.9241 141.774 35.8362 141.422 35.6604C141.077 35.4846 140.813 35.2385 140.63 34.922V38.1181H139.705ZM142.522 35.1541C142.889 35.1541 143.211 35.0732 143.49 34.9115C143.769 34.7427 143.989 34.5107 144.15 34.2153C144.312 33.92 144.392 33.5754 144.392 33.1816C144.392 32.7878 144.312 32.4432 144.15 32.1479C143.989 31.8525 143.769 31.624 143.49 31.4622C143.211 31.2935 142.889 31.2091 142.522 31.2091C142.155 31.2091 141.833 31.2935 141.554 31.4622C141.275 31.624 141.055 31.8525 140.894 32.1479C140.732 32.4432 140.652 32.7878 140.652 33.1816C140.652 33.5754 140.732 33.92 140.894 34.2153C141.055 34.5107 141.275 34.7427 141.554 34.9115C141.833 35.0732 142.155 35.1541 142.522 35.1541Z" fill="white"/>
<path d="M146.724 38.1181V30.5657H147.56L147.648 31.4306C147.824 31.1775 148.074 30.9489 148.396 30.745C148.726 30.541 149.144 30.4391 149.65 30.4391C150.193 30.4391 150.666 30.5586 151.07 30.7977C151.473 31.0368 151.785 31.3638 152.005 31.7787C152.232 32.1936 152.346 32.6647 152.346 33.1921C152.346 33.7195 152.232 34.1907 152.005 34.6056C151.785 35.0135 151.469 35.3369 151.059 35.576C150.655 35.8081 150.182 35.9241 149.639 35.9241C149.192 35.9241 148.792 35.8362 148.44 35.6604C148.096 35.4846 147.831 35.2385 147.648 34.922V38.1181H146.724ZM149.54 35.1541C149.907 35.1541 150.23 35.0732 150.509 34.9115C150.787 34.7427 151.007 34.5107 151.169 34.2153C151.33 33.92 151.411 33.5754 151.411 33.1816C151.411 32.7878 151.33 32.4432 151.169 32.1479C151.007 31.8525 150.787 31.624 150.509 31.4622C150.23 31.2935 149.907 31.2091 149.54 31.2091C149.174 31.2091 148.851 31.2935 148.572 31.4622C148.294 31.624 148.074 31.8525 147.912 32.1479C147.751 32.4432 147.67 32.7878 147.67 33.1816C147.67 33.5754 147.751 33.92 147.912 34.2153C148.074 34.5107 148.294 34.7427 148.572 34.9115C148.851 35.0732 149.174 35.1541 149.54 35.1541Z" fill="white"/>
<path d="M63.3334 9.81374H51.7393V13.1344H55.577V23.1729H59.4956V13.1344H63.3334V9.81374Z" fill="white"/>
<path d="M72.1436 12.8673L71.7599 13.6688C70.8711 12.9627 69.7198 12.5619 68.4271 12.5619C65.0943 12.5619 62.7108 14.833 62.7108 18.0201C62.7108 21.2263 65.0943 23.5164 68.4271 23.5164C69.6996 23.5164 70.8307 23.1347 71.7195 22.4477L72.0426 23.1729H74.9513V12.8673H72.1436ZM68.932 20.3866C67.5181 20.3866 66.488 19.3751 66.488 18.0201C66.488 16.6842 67.5181 15.6918 68.932 15.6918C70.346 15.6918 71.3761 16.6842 71.3761 18.0201C71.3761 19.3751 70.346 20.3866 68.932 20.3866Z" fill="white"/>
<path d="M77.3425 11.5886H81.059V8.57324H77.3425V11.5886ZM77.3223 23.1729H81.0792V12.8673H77.3223V23.1729Z" fill="white"/>
<path d="M87.9213 20.0239L92.0418 13.4589V12.8673H83.0331V16.0162H86.8507L82.6696 22.6576V23.1729H92.0822V20.0239H87.9213Z" fill="white"/>
<path d="M99.1682 23.5164C102.723 23.5164 105.288 21.2072 105.288 18.0201C105.288 14.833 102.723 12.5428 99.1682 12.5428C95.6132 12.5428 93.0682 14.833 93.0682 18.0201C93.0682 21.2072 95.6132 23.5164 99.1682 23.5164ZM99.1682 20.3293C97.8149 20.3293 96.8251 19.3942 96.8251 18.0392C96.8251 16.6651 97.8149 15.7299 99.1682 15.7299C100.542 15.7299 101.531 16.6842 101.531 18.0392C101.531 19.3942 100.542 20.3293 99.1682 20.3293Z" fill="white"/>
<path d="M106.887 23.1729H110.543V19.8904H106.887V23.1729Z" fill="white"/>
<path d="M112.789 11.5886H116.506V8.57324H112.789V11.5886ZM112.769 23.1729H116.526V12.8673H112.769V23.1729Z" fill="white"/>
<path d="M125.468 12.581C124.054 12.581 122.843 13.0772 122.035 13.936L121.53 12.8673H118.884V23.1729H122.641V17.6766C122.641 16.3597 123.307 15.5963 124.479 15.5963C125.428 15.5963 125.913 16.188 125.913 17.3903V23.1729H129.67V16.8941C129.67 14.2795 127.993 12.581 125.468 12.581Z" fill="white"/>
</svg>
