<svg width="107" height="37" viewBox="0 0 107 37" fill="none" xmlns="http://www.w3.org/2000/svg">
<path d="M104.128 29.2957C103.66 29.2957 103.256 29.1923 102.917 28.9857C102.579 28.7769 102.319 28.4859 102.135 28.1126C101.954 27.7373 101.863 27.3007 101.863 26.8031C101.863 26.3054 101.954 25.8667 102.135 25.4872C102.319 25.1055 102.574 24.8081 102.901 24.5951C103.23 24.38 103.614 24.2725 104.052 24.2725C104.305 24.2725 104.555 24.3147 104.802 24.399C105.049 24.4834 105.273 24.6204 105.476 24.8102C105.678 24.9979 105.839 25.2468 105.96 25.5568C106.08 25.8667 106.14 26.2484 106.14 26.7018V27.0182H102.395V26.3729H105.381C105.381 26.0987 105.326 25.8541 105.216 25.639C105.109 25.4239 104.955 25.2541 104.754 25.1297C104.556 25.0053 104.322 24.9431 104.052 24.9431C103.755 24.9431 103.498 25.0169 103.28 25.1645C103.065 25.31 102.9 25.4998 102.784 25.7339C102.668 25.968 102.61 26.2189 102.61 26.4867V26.9169C102.61 27.2839 102.673 27.5949 102.8 27.8501C102.928 28.1031 103.106 28.2961 103.334 28.4289C103.562 28.5597 103.827 28.6251 104.128 28.6251C104.324 28.6251 104.501 28.5976 104.66 28.5428C104.82 28.4859 104.958 28.4015 105.074 28.2898C105.19 28.1759 105.28 28.0346 105.343 27.8659L106.064 28.0683C105.988 28.313 105.861 28.5281 105.681 28.7136C105.502 28.8971 105.281 29.0405 105.017 29.1438C104.753 29.2451 104.457 29.2957 104.128 29.2957Z" fill="#393939"/>
<path d="M100.723 22.7162V29.1945H99.9768V22.7162H100.723Z" fill="#393939"/>
<path d="M96.6359 29.2957C96.1973 29.2957 95.8124 29.1913 95.4813 28.9825C95.1524 28.7737 94.8951 28.4817 94.7095 28.1063C94.5261 27.7309 94.4343 27.2923 94.4343 26.7904C94.4343 26.2843 94.5261 25.8425 94.7095 25.465C94.8951 25.0875 95.1524 24.7944 95.4813 24.5856C95.8124 24.3769 96.1973 24.2725 96.6359 24.2725C97.0745 24.2725 97.4583 24.3769 97.7873 24.5856C98.1184 24.7944 98.3757 25.0875 98.5591 25.465C98.7447 25.8425 98.8375 26.2843 98.8375 26.7904C98.8375 27.2923 98.7447 27.7309 98.5591 28.1063C98.3757 28.4817 98.1184 28.7737 97.7873 28.9825C97.4583 29.1913 97.0745 29.2957 96.6359 29.2957ZM96.6359 28.6251C96.9691 28.6251 97.2433 28.5397 97.4583 28.3688C97.6734 28.198 97.8327 27.9734 97.936 27.6951C98.0393 27.4167 98.091 27.1152 98.091 26.7904C98.091 26.4656 98.0393 26.163 97.936 25.8826C97.8327 25.6021 97.6734 25.3754 97.4583 25.2025C97.2433 25.0296 96.9691 24.9431 96.6359 24.9431C96.3027 24.9431 96.0286 25.0296 95.8135 25.2025C95.5984 25.3754 95.4392 25.6021 95.3358 25.8826C95.2325 26.163 95.1808 26.4656 95.1808 26.7904C95.1808 27.1152 95.2325 27.4167 95.3358 27.6951C95.4392 27.9734 95.5984 28.198 95.8135 28.3688C96.0286 28.5397 96.3027 28.6251 96.6359 28.6251Z" fill="#393939"/>
<path d="M93.4494 25.4239L92.7788 25.6137C92.7366 25.5019 92.6744 25.3933 92.5922 25.2879C92.512 25.1803 92.4024 25.0918 92.2632 25.0222C92.124 24.9526 91.9458 24.9178 91.7286 24.9178C91.4313 24.9178 91.1835 24.9863 90.9853 25.1234C90.7891 25.2584 90.6911 25.4302 90.6911 25.639C90.6911 25.8246 90.7586 25.9711 90.8935 26.0787C91.0285 26.1862 91.2394 26.2759 91.5262 26.3476L92.2474 26.5247C92.6818 26.6301 93.0055 26.7915 93.2185 27.0087C93.4315 27.2238 93.538 27.5011 93.538 27.8406C93.538 28.1189 93.4578 28.3678 93.2976 28.5871C93.1394 28.8064 92.918 28.9793 92.6333 29.1059C92.3486 29.2324 92.0175 29.2957 91.64 29.2957C91.1445 29.2957 90.7343 29.1881 90.4096 28.973C90.0848 28.7579 89.8792 28.4437 89.7927 28.0304L90.5013 27.8532C90.5688 28.1147 90.6963 28.3109 90.884 28.4416C91.0738 28.5723 91.3216 28.6377 91.6274 28.6377C91.9753 28.6377 92.2516 28.5639 92.4561 28.4163C92.6628 28.2666 92.7661 28.0873 92.7661 27.8785C92.7661 27.7098 92.7071 27.5686 92.589 27.4547C92.4709 27.3387 92.2895 27.2522 92.0449 27.1953L91.2351 27.0055C90.7902 26.9001 90.4633 26.7366 90.2546 26.5152C90.0479 26.2917 89.9446 26.0123 89.9446 25.677C89.9446 25.4028 90.0215 25.1603 90.1755 24.9494C90.3315 24.7385 90.5435 24.573 90.8113 24.4528C91.0812 24.3326 91.387 24.2725 91.7286 24.2725C92.2094 24.2725 92.5869 24.3779 92.861 24.5888C93.1373 24.7997 93.3334 25.0781 93.4494 25.4239Z" fill="#393939"/>
<path d="M85.5434 26.2716V29.1944H84.7969V24.3358H85.5181V25.0949H85.5813C85.6952 24.8482 85.8681 24.65 86.1001 24.5002C86.3321 24.3484 86.6315 24.2725 86.9985 24.2725C87.3274 24.2725 87.6153 24.34 87.862 24.4749C88.1088 24.6078 88.3007 24.8102 88.4377 25.0823C88.5748 25.3522 88.6433 25.6938 88.6433 26.1072V29.1944H87.8968V26.1578C87.8968 25.7761 87.7977 25.4787 87.5995 25.2657C87.4012 25.0506 87.1292 24.9431 86.7834 24.9431C86.5451 24.9431 86.3321 24.9948 86.1444 25.0981C85.9588 25.2014 85.8123 25.3522 85.7047 25.5504C85.5972 25.7487 85.5434 25.9891 85.5434 26.2716Z" fill="#393939"/>
<path d="M81.4557 29.2957C81.0171 29.2957 80.6323 29.1913 80.3012 28.9825C79.9722 28.7737 79.7149 28.4817 79.5293 28.1063C79.3459 27.7309 79.2542 27.2923 79.2542 26.7904C79.2542 26.2843 79.3459 25.8425 79.5293 25.465C79.7149 25.0875 79.9722 24.7944 80.3012 24.5856C80.6323 24.3769 81.0171 24.2725 81.4557 24.2725C81.8944 24.2725 82.2782 24.3769 82.6072 24.5856C82.9382 24.7944 83.1955 25.0875 83.379 25.465C83.5645 25.8425 83.6573 26.2843 83.6573 26.7904C83.6573 27.2923 83.5645 27.7309 83.379 28.1063C83.1955 28.4817 82.9382 28.7737 82.6072 28.9825C82.2782 29.1913 81.8944 29.2957 81.4557 29.2957ZM81.4557 28.6251C81.7889 28.6251 82.0631 28.5397 82.2782 28.3688C82.4933 28.198 82.6525 27.9734 82.7558 27.6951C82.8592 27.4167 82.9108 27.1152 82.9108 26.7904C82.9108 26.4656 82.8592 26.163 82.7558 25.8826C82.6525 25.6021 82.4933 25.3754 82.2782 25.2025C82.0631 25.0296 81.7889 24.9431 81.4557 24.9431C81.1225 24.9431 80.8484 25.0296 80.6333 25.2025C80.4182 25.3754 80.259 25.6021 80.1557 25.8826C80.0523 26.163 80.0007 26.4656 80.0007 26.7904C80.0007 27.1152 80.0523 27.4167 80.1557 27.6951C80.259 27.9734 80.4182 28.198 80.6333 28.3688C80.8484 28.5397 81.1225 28.6251 81.4557 28.6251Z" fill="#393939"/>
<path d="M78.3151 24.7406H77.5307C77.4843 24.515 77.4031 24.3168 77.2871 24.146C77.1732 23.9752 77.034 23.8318 76.8696 23.7158C76.7072 23.5977 76.5269 23.5091 76.3286 23.4501C76.1304 23.391 75.9238 23.3615 75.7087 23.3615C75.3164 23.3615 74.9611 23.4606 74.6427 23.6588C74.3263 23.8571 74.0743 24.1491 73.8867 24.535C73.7011 24.9209 73.6083 25.3944 73.6083 25.9553C73.6083 26.5163 73.7011 26.9897 73.8867 27.3756C74.0743 27.7615 74.3263 28.0536 74.6427 28.2518C74.9611 28.45 75.3164 28.5491 75.7087 28.5491C75.9238 28.5491 76.1304 28.5196 76.3286 28.4606C76.5269 28.4015 76.7072 28.314 76.8696 28.198C77.034 28.0799 77.1732 27.9355 77.2871 27.7647C77.4031 27.5917 77.4843 27.3935 77.5307 27.17H78.3151C78.2561 27.5011 78.1485 27.7974 77.9925 28.0588C77.8364 28.3203 77.6424 28.5428 77.4105 28.7263C77.1785 28.9076 76.9181 29.0458 76.6292 29.1407C76.3424 29.2356 76.0355 29.283 75.7087 29.283C75.1562 29.283 74.6648 29.148 74.2346 28.8781C73.8044 28.6082 73.4659 28.2244 73.2192 27.7267C72.9725 27.229 72.8491 26.6386 72.8491 25.9553C72.8491 25.2721 72.9725 24.6816 73.2192 24.1839C73.4659 23.6862 73.8044 23.3024 74.2346 23.0325C74.6648 22.7626 75.1562 22.6276 75.7087 22.6276C76.0355 22.6276 76.3424 22.6751 76.6292 22.77C76.9181 22.8649 77.1785 23.004 77.4105 23.1875C77.6424 23.3689 77.8364 23.5903 77.9925 23.8518C78.1485 24.1112 78.2561 24.4075 78.3151 24.7406Z" fill="#393939"/>
<path d="M66.0312 26.2716V29.1944H65.2847V24.3358H66.0059V25.0949H66.0691C66.183 24.8482 66.3559 24.65 66.5879 24.5002C66.8199 24.3484 67.1193 24.2725 67.4863 24.2725C67.8152 24.2725 68.1031 24.34 68.3498 24.4749C68.5965 24.6078 68.7884 24.8102 68.9255 25.0823C69.0626 25.3522 69.1311 25.6938 69.1311 26.1072V29.1944H68.3846V26.1578C68.3846 25.7761 68.2855 25.4787 68.0873 25.2657C67.889 25.0506 67.617 24.9431 67.2712 24.9431C67.0329 24.9431 66.8199 24.9948 66.6322 25.0981C66.4466 25.2014 66.3001 25.3522 66.1925 25.5504C66.085 25.7487 66.0312 25.9891 66.0312 26.2716Z" fill="#393939"/>
<path d="M63.1711 29.1945V24.3358H63.9176V29.1945H63.1711ZM63.5507 23.526C63.4052 23.526 63.2797 23.4764 63.1743 23.3773C63.071 23.2782 63.0193 23.1591 63.0193 23.0199C63.0193 22.8807 63.071 22.7615 63.1743 22.6624C63.2797 22.5633 63.4052 22.5138 63.5507 22.5138C63.6962 22.5138 63.8206 22.5633 63.924 22.6624C64.0294 22.7615 64.0821 22.8807 64.0821 23.0199C64.0821 23.1591 64.0294 23.2782 63.924 23.3773C63.8206 23.4764 63.6962 23.526 63.5507 23.526Z" fill="#393939"/>
<path d="M55.429 29.1944V24.3358H56.1502V25.0949H56.2134C56.3147 24.8355 56.4781 24.6342 56.7037 24.4908C56.9294 24.3452 57.2004 24.2725 57.5167 24.2725C57.8372 24.2725 58.104 24.3452 58.317 24.4908C58.5321 24.6342 58.6997 24.8355 58.8199 25.0949H58.8705C58.9949 24.844 59.1816 24.6447 59.4304 24.4971C59.6792 24.3474 59.9776 24.2725 60.3256 24.2725C60.76 24.2725 61.1153 24.4085 61.3916 24.6805C61.6679 24.9505 61.806 25.3712 61.806 25.9427V29.1944H61.0595V25.9427C61.0595 25.5842 60.9614 25.3279 60.7653 25.174C60.5692 25.0201 60.3383 24.9431 60.0725 24.9431C59.7309 24.9431 59.4663 25.0464 59.2786 25.2531C59.0909 25.4576 58.9971 25.717 58.9971 26.0312V29.1944H58.2379V25.8667C58.2379 25.5905 58.1483 25.368 57.969 25.1993C57.7898 25.0285 57.5588 24.9431 57.2763 24.9431C57.0823 24.9431 56.9009 24.9948 56.7322 25.0981C56.5656 25.2014 56.4306 25.3448 56.3273 25.5283C56.2261 25.7096 56.1755 25.9195 56.1755 26.1578V29.1944H55.429Z" fill="#393939"/>
<path d="M51.7309 29.2957C51.326 29.2957 50.9685 29.1934 50.6585 28.9889C50.3485 28.7822 50.106 28.4912 49.931 28.1158C49.756 27.7383 49.6685 27.2923 49.6685 26.7778C49.6685 26.2674 49.756 25.8246 49.931 25.4492C50.106 25.0739 50.3496 24.7839 50.6617 24.5793C50.9738 24.3748 51.3344 24.2725 51.7435 24.2725C52.0598 24.2725 52.3097 24.3252 52.4932 24.4307C52.6788 24.534 52.8201 24.6521 52.9171 24.785C53.0162 24.9157 53.0932 25.0232 53.148 25.1076H53.2112V22.7162H53.9578V29.1945H53.2366V28.4479H53.148C53.0932 28.5365 53.0151 28.6483 52.9139 28.7832C52.8127 28.9161 52.6682 29.0352 52.4805 29.1407C52.2929 29.244 52.043 29.2957 51.7309 29.2957ZM51.8321 28.6251C52.1315 28.6251 52.3846 28.5471 52.5913 28.391C52.7979 28.2328 52.955 28.0146 53.0626 27.7362C53.1701 27.4558 53.2239 27.1321 53.2239 26.7651C53.2239 26.4024 53.1712 26.085 53.0657 25.813C52.9603 25.5389 52.8042 25.3259 52.5976 25.174C52.3909 25.0201 52.1358 24.9431 51.8321 24.9431C51.5158 24.9431 51.2522 25.0243 51.0413 25.1867C50.8325 25.3469 50.6754 25.5652 50.57 25.8415C50.4666 26.1156 50.415 26.4235 50.415 26.7651C50.415 27.111 50.4677 27.4252 50.5731 27.7078C50.6807 27.9882 50.8388 28.2118 51.0476 28.3784C51.2585 28.5428 51.52 28.6251 51.8321 28.6251Z" fill="#393939"/>
<path d="M44.2433 29.1945H43.4209L45.7996 22.7162H46.6094L48.9881 29.1945H48.1657L46.2298 23.7411H46.1792L44.2433 29.1945ZM44.547 26.6639H47.862V27.3598H44.547V26.6639Z" fill="#393939"/>
<path d="M50.6576 8.06809H41.7162V10.7391H44.6759V18.8135H47.6979V10.7391H50.6576V8.06809Z" fill="#393939"/>
<path d="M57.452 10.5242L57.156 11.1689C56.4706 10.6009 55.5828 10.2786 54.5858 10.2786C52.0156 10.2786 50.1775 12.1053 50.1775 14.6688C50.1775 17.2477 52.0156 19.0898 54.5858 19.0898C55.5672 19.0898 56.4395 18.7828 57.1249 18.2302L57.3741 18.8135H59.6172V10.5242H57.452ZM54.9752 16.5723C53.8848 16.5723 53.0904 15.7587 53.0904 14.6688C53.0904 13.5943 53.8848 12.7961 54.9752 12.7961C56.0656 12.7961 56.8601 13.5943 56.8601 14.6688C56.8601 15.7587 56.0656 16.5723 54.9752 16.5723Z" fill="#393939"/>
<path d="M61.4613 9.49569H64.3275V7.0703H61.4613V9.49569ZM61.4457 18.8135H64.3431V10.5242H61.4457V18.8135Z" fill="#393939"/>
<path d="M69.6196 16.2807L72.7974 11V10.5242H65.8499V13.057H68.794L65.5696 18.399V18.8135H72.8285V16.2807H69.6196Z" fill="#393939"/>
<path d="M78.2932 19.0898C81.0348 19.0898 83.0131 17.2324 83.0131 14.6688C83.0131 12.1053 81.0348 10.2632 78.2932 10.2632C75.5516 10.2632 73.5889 12.1053 73.5889 14.6688C73.5889 17.2324 75.5516 19.0898 78.2932 19.0898ZM78.2932 16.5263C77.2495 16.5263 76.4863 15.7741 76.4863 14.6842C76.4863 13.5789 77.2495 12.8268 78.2932 12.8268C79.3525 12.8268 80.1157 13.5943 80.1157 14.6842C80.1157 15.7741 79.3525 16.5263 78.2932 16.5263Z" fill="#393939"/>
<path d="M84.2461 18.8135H87.0656V16.1732H84.2461V18.8135Z" fill="#393939"/>
<path d="M88.7975 9.49569H91.6637V7.0703H88.7975V9.49569ZM88.7819 18.8135H91.6793V10.5242H88.7819V18.8135Z" fill="#393939"/>
<path d="M98.5758 10.2939C97.4854 10.2939 96.5508 10.693 95.9277 11.3838L95.5383 10.5242H93.4977V18.8135H96.395V14.3925C96.395 13.3333 96.9091 12.7193 97.8126 12.7193C98.5447 12.7193 98.9185 13.1952 98.9185 14.1623V18.8135H101.816V13.7632C101.816 11.6601 100.523 10.2939 98.5758 10.2939Z" fill="#393939"/>
<path fill-rule="evenodd" clip-rule="evenodd" d="M0 8.48437C0 3.79859 3.79871 0 8.48466 0H28.5163C33.2023 0 37.001 3.79858 37.001 8.48436V28.5156C37.001 33.2014 33.2023 37 28.5163 37H8.48465C3.7987 37 0 33.2014 0 28.5156V8.48437Z" fill="#169C50"/>
<path fill-rule="evenodd" clip-rule="evenodd" d="M28.8099 21.6616V15.0527C29.8184 14.8376 30.5883 14.0211 30.7442 13.002C30.9001 11.9829 30.4094 10.9737 29.5115 10.467C28.6135 9.96021 27.4958 10.0617 26.704 10.7219L20.9475 7.3982C20.9561 7.31103 20.9613 7.22421 20.9613 7.13507C20.9613 5.76503 19.8506 4.65438 18.4805 4.65438C17.1105 4.65438 15.9997 5.76502 15.9997 7.13507C16.0001 7.24015 16.0076 7.34512 16.0222 7.44918L10.3196 10.7418C9.53553 10.0714 8.41842 9.95639 7.51423 10.4529C6.61008 10.9494 6.10771 11.9539 6.25272 12.9752C6.39789 13.9964 7.16005 14.8212 8.16673 15.0463V21.668C7.16199 21.8922 6.4 22.7138 6.25211 23.7326C6.10435 24.7514 6.6011 25.7557 7.5008 26.2562C8.40029 26.7568 9.51567 26.6497 10.3035 25.987L16.1399 29.3572L16.1822 29.2828C16.4348 30.4143 16.9361 31.3154 17.5631 31.7677V32.2187H18.0664V32.0203C18.2004 32.0623 18.3401 32.0839 18.4805 32.0844C18.6837 32.0831 18.8843 32.0393 19.0697 31.9561V32.2193H19.574V31.6259C20.1933 30.9976 20.6098 30.1977 20.7693 29.3299L26.6437 25.9383C27.4207 26.6306 28.5475 26.7641 29.4648 26.2725C30.3821 25.7809 30.8948 24.7688 30.7486 23.7384C30.6023 22.708 29.8278 21.8786 28.8099 21.6616ZM28.2807 11.1858C29.0925 11.1854 29.7508 11.8431 29.7511 12.6549C29.7514 13.4666 29.0935 14.1249 28.2817 14.1251C27.47 14.1253 26.8118 13.4675 26.8117 12.6557C26.8117 11.8442 27.4692 11.1863 28.2807 11.1858ZM20.5985 8.4236L26.0504 11.5707C25.7735 12.1536 25.7369 12.8218 25.9484 13.4314L22.2598 15.5938C21.5254 14.4735 20.3316 13.737 19.0008 13.5833V9.56058C19.6662 9.41658 20.2434 9.00562 20.597 8.42396L20.5985 8.4236ZM18.4689 5.69329C19.2807 5.69292 19.939 6.35065 19.9393 7.16243C19.9396 7.97413 19.2817 8.63238 18.4699 8.63259C17.6582 8.63286 17 7.975 16.9999 7.16325C16.9999 6.35274 17.6564 5.69499 18.4674 5.69359L18.4689 5.69329ZM16.3896 8.46371C16.7412 9.01765 17.2983 9.40957 17.9385 9.55357V13.5872C16.6022 13.7488 15.4078 14.498 14.6807 15.6307L11.0312 13.4991C11.2674 12.8818 11.2436 12.1952 10.9655 11.5957L16.3896 8.46371ZM7.22889 12.6554C7.22824 11.8435 7.88615 11.1848 8.69819 11.1845C9.51016 11.1841 10.1687 11.8421 10.1689 12.6541C10.1689 13.4665 9.51059 14.1246 8.6985 14.1245C7.88683 14.125 7.22846 13.4677 7.22746 12.656L7.22889 12.6554ZM8.69884 25.5854C7.88675 25.5859 7.22824 24.9279 7.22815 24.1158C7.22815 23.3037 7.88666 22.6456 8.69871 22.646C9.51068 22.6464 10.1684 23.3053 10.1675 24.1173C10.1669 24.9287 9.50894 25.586 8.6975 25.586L8.69884 25.5854ZM9.22969 21.661V15.0527C9.69257 14.9542 10.1175 14.7247 10.4535 14.3915L14.2159 16.5878C13.8016 17.7615 13.8954 19.0547 14.4746 20.1564L10.5679 22.446C10.2167 22.048 9.74713 21.7731 9.22814 21.6616L9.22969 21.661ZM20.95 27.9993C20.9565 27.8712 20.9606 27.7429 20.9606 27.6118C20.9606 25.4783 20.1316 23.6961 19.0232 23.2503V19.475C19.7058 19.2305 20.1135 18.5306 19.9895 17.8163C19.8655 17.102 19.2455 16.5805 18.5206 16.5805C17.7957 16.5805 17.1757 17.102 17.0517 17.8163C16.9276 18.5306 17.3354 19.2305 18.018 19.475V23.2198C16.8704 23.6115 16.002 25.4277 16.002 27.6112C16.002 27.7619 16.0074 27.9106 16.0148 28.0571L10.9565 25.1357C11.1113 24.8077 11.1918 24.4496 11.1921 24.0869C11.1918 23.8442 11.156 23.6028 11.0861 23.3704L15.073 21.034C15.7492 21.8118 16.671 22.335 17.6855 22.5169V21.4632C15.9725 21.062 14.8268 19.4477 15.0134 17.6983C15.2 15.949 16.6608 14.6127 18.4199 14.582C20.1788 14.5512 21.6853 15.8358 21.933 17.5776C22.1806 19.3193 21.0917 20.9727 19.3937 21.4334V22.5002C20.3544 22.3013 21.2242 21.795 21.8713 21.0578L25.9074 23.4144C25.7508 23.9638 25.7899 24.5505 26.0176 25.0745L20.95 27.9993ZM26.4083 22.4774L22.4765 20.1814C23.0735 19.0607 23.1668 17.7392 22.733 16.5458L26.5003 14.3379C26.8378 14.6926 27.2729 14.939 27.7506 15.046V21.6677C27.2265 21.7845 26.7548 22.0689 26.4068 22.4777L26.4083 22.4774ZM28.2811 25.5867C27.4692 25.5872 26.8107 24.9293 26.8104 24.1175C26.81 23.3057 27.4681 22.6473 28.28 22.6473C29.092 22.6473 29.75 23.3056 29.7498 24.1174C29.7491 24.9283 29.0921 25.5861 28.2811 25.5867Z" fill="white"/>
</svg>
