<svg width="110" height="111" viewBox="0 0 110 111" fill="none" xmlns="http://www.w3.org/2000/svg">
<rect width="110" height="110" rx="55" fill="#D3D3D3"/>
<path d="M89.9679 88.4649C87.9632 81.4006 82.5218 75.8638 75.4575 73.859L62.4746 70.136H46.1504L33.1675 73.859C26.1032 75.8638 20.6618 81.4006 18.6571 88.4649L15.8125 93.5C25.9316 103.237 39.0862 110.135 54.2648 110.135C69.4434 110.135 83.2855 104.121 93.5 94.3836L89.9679 88.4649Z" fill="#BFBFBF"/>
<path d="M61.9018 59.7305H46.6278L44.2412 72.3316C44.2412 72.3316 48.537 76.8184 54.2648 77.1048C59.9926 76.9138 64.2884 72.3316 64.2884 72.3316L61.9018 59.7305Z" fill="#BFBFBF"/>
<path d="M71.3527 42.0699C71.3527 52.3799 63.7157 66.222 54.2649 66.222C44.8141 66.222 37.177 52.3799 37.177 42.0699C37.177 31.7599 44.8141 23.3592 54.2649 23.3592C63.7157 23.2637 71.3527 31.6645 71.3527 42.0699Z" fill="#BFBFBF"/>
<path d="M39.3725 43.5018C39.277 45.5066 38.1315 48.1795 36.6995 48.0841C35.363 47.9886 34.4084 45.3156 34.4084 43.2154C34.5039 41.2107 35.6494 39.5879 36.9859 39.6833C38.4178 39.7788 39.4679 41.4971 39.3725 43.5018Z" fill="#BFBFBF"/>
<path d="M73.8348 43.3109C73.9302 45.3157 72.8801 48.0841 71.5437 48.0841C70.2072 48.0841 68.9662 45.5066 68.9662 43.4064C68.8707 41.4017 69.9208 39.6833 71.2573 39.6833C72.5938 39.6833 73.7393 41.3062 73.8348 43.3109Z" fill="#BFBFBF"/>
<path d="M61.5202 29.4688C61.7111 30.0416 62.1884 30.5189 62.7612 30.8053C63.334 31.0917 63.9067 31.2826 64.4795 31.569C65.2432 31.8554 65.9115 32.1418 66.5797 32.6191C67.1525 33.0964 67.6298 33.7647 67.8207 34.5284" fill="#BFBFBF"/>
<path d="M41.0907 24.0274C38.1314 30.7098 50.0643 30.328 53.4055 29.9461C54.2646 29.8507 55.1238 29.5643 55.983 29.7552C56.9376 29.9461 57.7967 30.4235 58.7514 30.5189C60.8516 30.8053 63.0472 30.7098 65.0519 30.0416C65.5292 29.8507 66.0066 29.7552 66.4839 29.9461C66.7703 30.0416 66.9612 30.328 67.0566 30.5189C67.8204 31.6645 68.5841 32.9055 68.9659 34.1465C69.4432 36.0558 69.2523 38.0605 69.1568 39.9697C69.0614 41.2108 68.9659 45.5066 70.5888 45.793C70.8752 43.7883 71.0664 41.6881 71.2573 39.6833C71.2573 39.6833 72.9753 33.5737 72.4026 30.328C71.4479 25.2685 67.8203 19.0634 53.31 19.2543C43.0955 19.3498 41.0907 24.0274 41.0907 24.0274Z" fill="#BFBFBF"/>
<path d="M45.2913 27.5596C45.2913 27.7505 45.1958 27.8459 45.0049 28.0369C44.623 28.4187 44.1457 28.5142 43.6684 28.7051C42.2365 29.2779 41.2818 30.7098 40.5181 32.0463C40.0408 32.9055 39.468 33.8601 39.3726 34.8147C39.2771 36.1512 40.0408 37.3922 40.2317 38.7287C40.4227 39.7788 40.1363 40.7334 39.8499 41.7835C39.7544 42.2608 38.7043 46.2703 37.8452 45.8884L37.1769 39.7788C37.1769 39.7788 35.4586 33.6692 36.0314 30.4234C36.6042 27.2732 38.1316 23.5501 42.0455 24.6002C42.8092 24.6957 45.4822 26.414 45.2913 27.5596Z" fill="#BFBFBF"/>
</svg>
