<svg width="295" height="280" viewBox="0 0 295 280" fill="none" xmlns="http://www.w3.org/2000/svg">
<g opacity="0.05">
<path fill-rule="evenodd" clip-rule="evenodd" d="M7.6865 222.053C-1.52919 212.837 -1.61485 197.981 7.49519 188.871L57.6851 138.681C66.7952 129.571 81.6511 129.657 90.8668 138.872L141.64 189.645C150.855 198.861 150.941 213.717 141.831 222.827L91.6409 273.017C82.5309 282.127 67.6749 282.041 58.4592 272.825L7.6865 222.053Z" fill="#169C50"/>
<path fill-rule="evenodd" clip-rule="evenodd" d="M105.03 189.862L89.9999 174.832C91.7775 172.076 91.6516 168.489 89.6845 165.82C87.7173 163.152 84.3188 161.96 81.148 162.826C77.9768 163.693 75.6951 166.436 75.4162 169.718L54.9165 175.1C54.7377 174.882 54.552 174.673 54.3493 174.47C51.2335 171.354 46.2108 171.325 43.1306 174.406C40.0508 177.485 40.0795 182.508 43.1953 185.624C43.4351 185.862 43.6909 186.084 43.9602 186.288L38.6286 206.596C35.3413 206.834 32.5684 209.084 31.6648 212.245C30.7615 215.407 31.9165 218.821 34.5651 220.818C37.2139 222.814 40.8031 222.976 43.5782 221.225L58.6373 236.284C56.8884 239.053 57.0439 242.634 59.0284 245.284C61.0131 247.933 64.4138 249.1 67.5748 248.216C70.7353 247.332 72.9991 244.581 73.2631 241.303L94.0481 235.847L93.9741 235.582C97.1153 237.588 100.292 238.51 102.73 238.129L103.755 239.155L104.887 238.024L104.435 237.572C104.832 237.366 105.195 237.102 105.512 236.787C105.966 236.327 106.317 235.777 106.545 235.171L107.144 235.77L108.277 234.636L106.928 233.286C106.891 230.465 106.008 227.71 104.393 225.378L109.886 204.458C113.207 204.286 116.044 202.057 116.988 198.876C117.932 195.696 116.783 192.242 114.111 190.227C111.439 188.213 107.812 188.068 105.03 189.862ZM80.016 167.228C81.8401 165.402 84.8159 165.418 86.6626 167.263C88.5094 169.109 88.5274 172.085 86.703 173.91C84.8787 175.735 81.903 175.719 80.0566 173.873C78.2111 172.028 78.193 169.053 80.016 167.228ZM56.4644 178.216L75.8779 173.117C76.581 175.065 78.0185 176.667 79.8802 177.578L76.5057 190.788C72.3071 189.891 67.9482 190.899 64.6071 193.542L55.4585 184.393C56.6269 182.57 56.9898 180.338 56.4621 178.22L56.4644 178.216ZM45.4678 176.794C47.2919 174.968 50.2678 174.984 52.1147 176.829C53.9611 178.675 53.9791 181.651 52.1547 183.476C50.3307 185.302 47.3549 185.285 45.5084 183.439C43.6652 181.596 43.6453 178.624 45.4651 176.798L45.4678 176.794ZM47.0936 187.768C49.1439 188.238 51.2874 187.877 53.0543 186.765L62.2276 195.938C59.591 199.31 58.6098 203.699 59.551 207.909L46.4991 211.266C45.6262 209.331 44.0113 207.823 42.0226 207.085L47.0936 187.768ZM36.0328 217.896C34.1849 216.051 34.1659 213.074 35.9908 211.247C37.8152 209.421 40.7923 209.437 42.6392 211.283C44.4867 213.131 44.5036 216.108 42.6776 217.933C40.8541 219.759 37.8792 219.744 36.031 217.9L36.0328 217.896ZM68.7428 243.996C66.9183 245.823 63.9414 245.807 62.0944 243.96C60.2475 242.114 60.2312 239.136 62.0577 237.312C63.884 235.488 66.8611 235.507 68.7057 237.356C70.5496 239.203 70.5653 242.177 68.7412 244.001L68.7428 243.996ZM61.01 233.879L45.9814 218.851C46.7979 217.586 47.2312 216.109 47.2289 214.595L60.6818 211.132C62.4198 214.733 65.5715 217.463 69.3792 218.667L65.8037 232.656C64.1091 232.541 62.4282 232.971 61.008 233.884L61.01 233.879ZM101.773 221.946C101.496 221.64 101.214 221.339 100.916 221.041C96.0635 216.189 90.1469 214 86.641 215.477L78.0552 206.892C79.0339 204.801 78.3586 202.293 76.4556 200.947C74.5522 199.601 71.9725 199.809 70.3428 201.439C68.7131 203.068 68.5055 205.648 69.8511 207.552C71.1965 209.455 73.7051 210.13 75.7955 209.151L84.3119 217.668C82.6231 221.138 84.8011 227.221 89.7669 232.187C90.1095 232.53 90.4601 232.856 90.8098 233.172L72.7946 237.9C72.3966 236.806 71.7633 235.81 70.9391 234.985C70.3865 234.433 69.757 233.965 69.0713 233.594L72.7207 219.317C76.0097 219.566 79.2719 218.684 81.9661 216.817L79.5699 214.42C74.8066 217.359 68.5594 216.263 65.0006 211.865C61.4418 207.467 61.6866 201.145 65.5713 197.12C69.4557 193.096 75.7637 192.631 80.2815 196.035C84.7994 199.44 86.1116 205.648 83.3422 210.512L85.7683 212.938C87.4757 210.327 88.2795 207.22 88.0576 204.088L102.491 200.375C103.388 201.976 104.81 203.223 106.514 203.902L101.773 221.946ZM101.486 197.117L87.4255 200.734C86.2188 196.844 83.4231 193.629 79.734 191.89L83.1819 178.4C84.7472 178.447 86.2857 178.03 87.6028 177.199L102.662 192.258C101.749 193.702 101.336 195.409 101.483 197.121L101.486 197.117ZM112.767 199.978C110.943 201.804 107.967 201.788 106.12 199.943C104.273 198.097 104.255 195.121 106.08 193.295C107.905 191.47 110.882 191.488 112.728 193.334C114.57 195.18 114.589 198.153 112.767 199.978Z" fill="white"/>
<path d="M137.954 117.838L115.56 140.231L122.513 147.184L129.925 139.772L150.943 160.79L158.512 153.221L137.494 132.203L144.906 124.791L137.954 117.838Z" fill="#393939"/>
<path d="M161.364 107.215L162.3 109.634C159.105 109.872 156.043 111.257 153.546 113.754C147.109 120.191 147.26 129.549 153.933 136.222C160.646 142.935 170.045 143.127 176.482 136.69C178.94 134.232 180.325 131.248 180.603 128.093L182.746 128.987L188.364 123.369L166.786 101.792L161.364 107.215ZM170.904 129.161C168.173 131.892 164.066 131.764 161.229 128.927C158.432 126.13 158.343 122.063 161.074 119.332C163.805 116.601 167.873 116.689 170.67 119.486C173.507 122.323 173.635 126.43 170.904 129.161Z" fill="#393939"/>
<path d="M168.728 94.4963L175.906 87.318L169.593 81.0046L162.414 88.183L168.728 94.4963ZM192.943 118.79L200.199 111.534L178.622 89.9561L171.366 97.2126L192.943 118.79Z" fill="#393939"/>
<path d="M206.821 91.7254L201.034 70.0212L199.796 68.7825L182.396 86.1823L188.989 92.7754L196.363 85.4019L202.192 107.383L203.271 108.462L221.451 90.2819L214.858 83.6888L206.821 91.7254Z" fill="#393939"/>
<path d="M235.857 77.3149C242.723 70.4486 242.843 60.6591 236.17 53.9861C229.497 47.3131 219.747 47.4727 212.881 54.339C206.014 61.2053 205.894 70.9159 212.567 77.5889C219.24 84.2619 228.99 84.1812 235.857 77.3149ZM229.184 70.6419C226.57 73.2558 222.7 73.2095 219.863 70.3724C216.986 67.4954 216.94 63.6259 219.554 61.012C222.207 58.3591 226.116 58.4454 228.953 61.2824C231.79 64.1195 231.836 67.989 229.184 70.6419Z" fill="#393939"/>
<path d="M250.046 61.6867L257.108 54.6253L250.235 47.7525L243.174 54.8139L250.046 61.6867Z" fill="#393939"/>
<path d="M237.191 26.0333L244.369 18.855L238.056 12.5416L230.877 19.72L237.191 26.0333ZM261.406 50.3269L268.662 43.0705L247.085 21.4931L239.829 28.7495L261.406 50.3269Z" fill="#393939"/>
<path d="M263.758 3.62144C261.027 6.35234 259.725 9.73201 259.963 13.0906L256.75 11.8283L251.639 16.939L273.217 38.5164L280.473 31.26L268.965 19.752C266.208 16.9949 265.897 14.1092 268.16 11.8464C269.993 10.0128 272.168 10.3152 274.686 12.8326L286.793 24.9399L294.05 17.6835L280.903 4.53727C275.429 -0.936982 268.635 -1.25517 263.758 3.62144Z" fill="#393939"/>
</g>
</svg>
