<svg width="12" height="13" viewBox="0 0 12 13" fill="none" xmlns="http://www.w3.org/2000/svg">
<g clip-path="url(#clip0_2_247)">
<path d="M3.16406 0.5C2.96991 0.5 2.8125 0.657406 2.8125 0.851562V1.90625H0.351562C0.157406 1.90625 0 2.06366 0 2.25781V12.1484C0 12.3426 0.157406 12.5 0.351562 12.5H3.16406C3.35822 12.5 3.51562 12.3426 3.51562 12.1484V0.851562C3.51562 0.657406 3.35822 0.5 3.16406 0.5Z" fill="#169C50"/>
<path d="M6.01663 4.74219H10.2354V6.125H6.01663V4.74219Z" fill="#169C50"/>
<path d="M11.6485 2.60938H4.21876V12.1484C4.21876 12.2717 4.19744 12.3901 4.15829 12.5H11.6485C11.8425 12.5 12 12.3425 12 12.1484V2.96094C12 2.76688 11.8425 2.60938 11.6485 2.60938ZM6.36822 11.0703H5.66509C5.47094 11.0703 5.31353 10.9129 5.31353 10.7188C5.31353 10.5246 5.47094 10.3672 5.66509 10.3672H6.36822C6.56237 10.3672 6.71978 10.5246 6.71978 10.7188C6.71978 10.9129 6.56237 11.0703 6.36822 11.0703ZM6.36822 9.66406H5.66509C5.47094 9.66406 5.31353 9.50666 5.31353 9.3125C5.31353 9.11834 5.47094 8.96094 5.66509 8.96094H6.36822C6.56237 8.96094 6.71978 9.11834 6.71978 9.3125C6.71978 9.50666 6.56237 9.66406 6.36822 9.66406ZM6.36822 8.25781H5.66509C5.47094 8.25781 5.31353 8.10041 5.31353 7.90625C5.31353 7.71209 5.47094 7.55469 5.66509 7.55469H6.36822C6.56237 7.55469 6.71978 7.71209 6.71978 7.90625C6.71978 8.10041 6.56237 8.25781 6.36822 8.25781ZM8.47759 11.0703H7.77447C7.58031 11.0703 7.4229 10.9129 7.4229 10.7188C7.4229 10.5246 7.58031 10.3672 7.77447 10.3672H8.47759C8.67175 10.3672 8.82915 10.5246 8.82915 10.7188C8.82915 10.9129 8.67175 11.0703 8.47759 11.0703ZM8.47759 9.66406H7.77447C7.58031 9.66406 7.4229 9.50666 7.4229 9.3125C7.4229 9.11834 7.58031 8.96094 7.77447 8.96094H8.47759C8.67175 8.96094 8.82915 9.11834 8.82915 9.3125C8.82915 9.50666 8.67175 9.66406 8.47759 9.66406ZM8.47759 8.25781H7.77447C7.58031 8.25781 7.4229 8.10041 7.4229 7.90625C7.4229 7.71209 7.58031 7.55469 7.77447 7.55469H8.47759C8.67175 7.55469 8.82915 7.71209 8.82915 7.90625C8.82915 8.10041 8.67175 8.25781 8.47759 8.25781ZM10.587 11.0703H9.88384C9.68969 11.0703 9.53228 10.9129 9.53228 10.7188C9.53228 10.5246 9.68969 10.3672 9.88384 10.3672H10.587C10.7811 10.3672 10.9385 10.5246 10.9385 10.7188C10.9385 10.9129 10.7811 11.0703 10.587 11.0703ZM10.587 9.66406H9.88384C9.68969 9.66406 9.53228 9.50666 9.53228 9.3125C9.53228 9.11834 9.68969 8.96094 9.88384 8.96094H10.587C10.7811 8.96094 10.9385 9.11834 10.9385 9.3125C10.9385 9.50666 10.7811 9.66406 10.587 9.66406ZM10.587 8.25781H9.88384C9.68969 8.25781 9.53228 8.10041 9.53228 7.90625C9.53228 7.71209 9.68969 7.55469 9.88384 7.55469H10.587C10.7811 7.55469 10.9385 7.71209 10.9385 7.90625C10.9385 8.10041 10.7811 8.25781 10.587 8.25781ZM10.9385 6.47656C10.9385 6.67072 10.7811 6.82812 10.587 6.82812H5.66509C5.47094 6.82812 5.31353 6.67072 5.31353 6.47656V4.39062C5.31353 4.19647 5.47094 4.03906 5.66509 4.03906H10.587C10.7811 4.03906 10.9385 4.19647 10.9385 4.39062V6.47656Z" fill="#169C50"/>
</g>
<defs>
<clipPath id="clip0_2_247">
<rect width="12" height="12" fill="white" transform="translate(0 0.5)"/>
</clipPath>
</defs>
</svg>
