<svg width="12" height="12" viewBox="0 0 12 12" fill="none" xmlns="http://www.w3.org/2000/svg">
<g clip-path="url(#clip0_2_113)">
<path d="M6.00855 0H5.99142C3.91904 0 2.23309 1.68539 2.23309 3.75697C2.23309 5.1149 2.85151 6.90702 4.07117 9.08366C4.97542 10.6974 5.89234 11.9333 5.90152 11.9455C5.92705 11.9798 5.96728 12 6.0099 12C6.01111 12 6.01235 12 6.01356 12C6.05754 11.9988 6.09813 11.9763 6.12253 11.9396C6.13157 11.9259 7.04196 10.5511 7.94007 8.86959C9.15229 6.60001 9.76693 4.87983 9.76693 3.75697C9.76685 1.68536 8.08087 0 6.00855 0ZM7.74335 3.84879C7.74335 4.81011 6.96128 5.59215 5.99996 5.59215C5.03866 5.59215 4.25659 4.81008 4.25659 3.84879C4.25659 2.88749 5.03866 2.10542 5.99996 2.10542C6.96128 2.10542 7.74335 2.88749 7.74335 3.84879Z" fill="#169C50"/>
</g>
<defs>
<clipPath id="clip0_2_113">
<rect width="12" height="12" fill="white"/>
</clipPath>
</defs>
</svg>
